#!OML:ASF H:\Terrain\Patient Classification 1\Animal2\Wednesday\Animal2.ASF
:FULLY-SPECIFIED
:DEGREES
3681
root 19.4912 17.9617 -15.9501 192.84 -195.709 -179.672
lowerback 12.1697 -1.31485 5.03715
upperback 6.93585 -1.14861 1.80413
thorax 0.393258 -0.443506 -0.821226
lowerneck -1.92249 4.29247 13.1215
upperneck 32.9419 6.35078 -6.17287
head 11.719 3.83023 -3.94196
rclavicle -2.38542e-015 -2.38542e-014
rhumerus -24.5958 -32.8863 -15.2557
rradius 52.654
rwrist -35.7511
rhand 10.2069 11.2954
rfingers 7.12502
rthumb 35.3225 -15.1847
lclavicle -2.38542e-015 -2.38542e-014
lhumerus -32.2827 13.6253 16.4438
lradius 48.0186
lwrist 55.8127
lhand 1.74399 18.409
lfingers 7.12502
lthumb 27.2597 46.4589
rfemur -21.6695 -8.16756 23.5871
rtibia 27.1544
rfoot -19.9313 -1.07847
rtoes 35.8001
lfemur -22.2347 -3.93363 -16.501
ltibia 23.7142
lfoot -13.8243 -0.380536
ltoes -28.7211
3682
root 19.4843 17.9595 -15.9583 192.814 -195.735 -179.533
lowerback 12.3199 -1.35983 4.86368
upperback 6.94095 -1.2143 1.81766
thorax 0.316711 -0.482365 -0.699779
lowerneck -1.75141 4.32051 13.0189
upperneck 32.7817 6.45926 -6.30461
head 11.6299 3.85287 -3.96238
rclavicle 4.77083e-014 -2.78299e-014
rhumerus -24.4429 -32.601 -15.3975
rradius 52.7288
rwrist -35.6656
rhand 11.4033 11.7659
rfingers 7.12502
rthumb 36.4561 -14.4372
lclavicle 4.77083e-014 -2.78299e-014
lhumerus -32.3737 13.2702 16.5905
lradius 48.1205
lwrist 55.3378
lhand 2.68447 18.5519
lfingers 7.12502
lthumb 28.159 46.4572
rfemur -21.6628 -8.13579 23.4552
rtibia 27.2145
rfoot -19.9692 -1.2194
rtoes 35.6018
lfemur -22.2052 -3.88448 -16.6479
ltibia 23.6765
lfoot -13.7479 -0.414146
ltoes -29.3299
3683
root 19.4793 17.9589 -15.9677 192.819 -195.76 -179.413
lowerback 12.449 -1.40181 4.73338
upperback 7.01407 -1.27643 1.77651
thorax 0.322112 -0.514593 -0.660391
lowerneck -2.05039 4.38302 13.0269
upperneck 32.9124 6.53371 -6.37787
head 11.7547 3.87582 -3.98103
rclavicle 1.31198e-014 0
rhumerus -24.3321 -32.5837 -15.657
rradius 52.7767
rwrist -35.3782
rhand 12.5126 12.3724
rfingers 7.12502
rthumb 37.5054 -13.5597
lclavicle 1.31198e-014 0
lhumerus -32.5207 13.2123 16.6287
lradius 48.3928
lwrist 54.7492
lhand 3.88704 19.0618
lfingers 7.12502
lthumb 29.3079 46.7722
rfemur -21.7346 -8.15843 23.3392
rtibia 27.333
rfoot -19.9891 -1.20109
rtoes 35.7887
lfemur -22.159 -3.96012 -16.7494
ltibia 23.5577
lfoot -13.6477 -0.491611
ltoes -28.8556
3684
root 19.4779 17.9609 -15.9772 192.899 -195.726 -179.28
lowerback 12.4968 -1.3795 4.64841
upperback 7.05761 -1.25521 1.69196
thorax 0.342384 -0.503726 -0.702841
lowerneck -2.18621 4.39134 13.1414
upperneck 32.7917 6.51943 -6.42174
head 11.7379 3.8723 -4.01416
rclavicle 1.47101e-014 -9.54166e-015
rhumerus -24.463 -32.5553 -15.7552
rradius 52.882
rwrist -35.3119
rhand 13.9161 12.7863
rfingers 7.12502
rthumb 38.8304 -12.7821
lclavicle 1.47101e-014 -9.54166e-015
lhumerus -32.5265 13.0837 16.7083
lradius 48.6746
lwrist 54.2974
lhand 5.45003 19.3366
lfingers 7.12502
lthumb 30.7991 46.7761
rfemur -21.9185 -8.29377 23.2143
rtibia 27.4927
rfoot -20.1113 -1.18314
rtoes 35.2708
lfemur -22.1261 -4.0661 -16.8741
ltibia 23.3858
lfoot -13.4875 -0.472282
ltoes -28.3076
3685
root 19.476 17.9645 -15.9846 192.928 -195.684 -179.141
lowerback 12.5729 -1.34732 4.55808
upperback 7.07427 -1.21881 1.62354
thorax 0.320288 -0.486935 -0.726666
lowerneck -2.10139 4.38063 13.2888
upperneck 32.5946 6.52185 -6.53578
head 11.6511 3.87625 -4.08037
rclavicle -1.86858e-014 3.89618e-014
rhumerus -24.5358 -32.5512 -15.7756
rradius 52.9043
rwrist -35.0906
rhand 15.2714 13.1707
rfingers 7.12502
rthumb 40.107 -12.023
lclavicle -1.86858e-014 3.89618e-014
lhumerus -32.4443 12.8733 16.8463
lradius 48.8282
lwrist 54.0084
lhand 6.63262 19.4453
lfingers 7.12502
lthumb 31.9259 46.6661
rfemur -22.0286 -8.31138 23.0573
rtibia 27.6599
rfoot -20.3134 -1.33474
rtoes 34.6364
lfemur -22.0323 -4.14439 -17.0203
ltibia 23.2027
lfoot -13.3343 -0.349241
ltoes -28.1346
3686
root 19.4726 17.9636 -15.9917 192.909 -195.696 -178.997
lowerback 12.7015 -1.33345 4.45605
upperback 7.14105 -1.20547 1.56529
thorax 0.322238 -0.480731 -0.730036
lowerneck -2.25978 4.40169 13.4598
upperneck 32.6612 6.52842 -6.59719
head 11.7217 3.89119 -4.13157
rclavicle -4.57205e-014 2.94201e-014
rhumerus -24.5 -32.6674 -15.8633
rradius 52.8561
rwrist -34.6021
rhand 15.958 13.6176
rfingers 7.12502
rthumb 40.7526 -11.3769
lclavicle -4.57205e-014 2.94201e-014
lhumerus -32.2371 12.7035 17.0093
lradius 48.8162
lwrist 53.5594
lhand 7.87325 19.534
lfingers 7.12502
lthumb 33.1065 46.5116
rfemur -22.0676 -8.1929 22.8811
rtibia 27.7994
rfoot -20.4328 -1.49974
rtoes 34.8522
lfemur -21.9243 -4.11233 -17.1832
ltibia 23.0502
lfoot -13.2133 -0.387159
ltoes -28.131
3687
root 19.4684 17.9622 -16.0003 192.886 -195.694 -178.835
lowerback 12.8607 -1.33147 4.31396
upperback 7.23976 -1.21101 1.51598
thorax 0.341369 -0.484432 -0.699054
lowerneck -2.60048 4.46839 13.4714
upperneck 32.7999 6.55862 -6.5263
head 11.8505 3.90903 -4.09954
rclavicle -3.97569e-015 3.97569e-015
rhumerus -24.437 -32.8115 -15.9744
rradius 52.845
rwrist -34.001
rhand 16.1554 14.2089
rfingers 7.12502
rthumb 40.9381 -10.7272
lclavicle -3.97569e-015 3.97569e-015
lhumerus -32.0228 12.7141 17.1498
lradius 48.6995
lwrist 52.7036
lhand 9.80099 19.326
lfingers 7.12502
lthumb 34.9376 45.8966
rfemur -22.0625 -8.1265 22.7042
rtibia 27.8798
rfoot -20.4634 -1.72415
rtoes 34.7305
lfemur -21.8496 -4.01156 -17.3834
ltibia 22.9678
lfoot -13.1053 -0.438354
ltoes -28.7339
3688
root 19.4649 17.9613 -16.0088 192.826 -195.686 -178.771
lowerback 13.0341 -1.34118 4.25224
upperback 7.3145 -1.2217 1.49662
thorax 0.3273 -0.489971 -0.680793
lowerneck -2.73613 4.50022 13.4558
upperneck 32.7922 6.60257 -6.57893
head 11.8808 3.91806 -4.10944
rclavicle 1.63003e-014 3.02153e-014
rhumerus -24.4047 -32.8825 -16.0881
rradius 52.8879
rwrist -33.4371
rhand 16.2134 14.7213
rfingers 7.12502
rthumb 40.9926 -10.1974
lclavicle 1.63003e-014 3.02153e-014
lhumerus -31.9867 12.7662 17.3167
lradius 48.7972
lwrist 51.974
lhand 10.9008 19.1897
lfingers 7.12502
lthumb 35.9802 45.5111
rfemur -22.0104 -8.1352 22.6387
rtibia 27.9085
rfoot -20.4193 -1.86019
rtoes 34.3587
lfemur -21.783 -4.06554 -17.4491
ltibia 22.9407
lfoot -13.0424 -0.296968
ltoes -29.6073
3689
root 19.4629 17.9594 -16.0169 192.805 -195.643 -178.741
lowerback 13.109 -1.31683 4.23791
upperback 7.39054 -1.18916 1.47022
thorax 0.368551 -0.471757 -0.703649
lowerneck -2.6494 4.48332 13.4771
upperneck 32.612 6.58938 -6.61369
head 11.7894 3.90826 -4.12546
rclavicle 1.59028e-015 2.38542e-014
rhumerus -24.4523 -32.8593 -16.1843
rradius 52.9933
rwrist -33.1213
rhand 16.4114 14.8808
rfingers 7.12502
rthumb 41.1785 -9.97856
lclavicle 1.59028e-015 2.38542e-014
lhumerus -31.8674 12.6176 17.5966
lradius 49.1021
lwrist 51.8439
lhand 10.736 19.6163
lfingers 7.12502
lthumb 35.8241 45.9758
rfemur -22.0101 -8.12697 22.5999
rtibia 27.9051
rfoot -20.4067 -1.77133
rtoes 34.4752
lfemur -21.7575 -4.20076 -17.458
ltibia 22.9242
lfoot -13.1782 -0.218574
ltoes -29.3509
3690
root 19.4602 17.9611 -16.0235 192.806 -195.612 -178.69
lowerback 13.0108 -1.30061 4.21974
upperback 7.55495 -1.18066 1.42423
thorax 0.594279 -0.460939 -0.745294
lowerneck -2.58284 4.49876 13.441
upperneck 32.3382 6.5767 -6.49846
head 11.6582 3.90365 -4.07087
rclavicle -4.77083e-014 1.98785e-014
rhumerus -24.379 -32.9271 -16.3811
rradius 53.0549
rwrist -32.847
rhand 16.7266 15.0789
rfingers 7.12502
rthumb 41.4744 -9.68481
lclavicle -4.77083e-014 1.98785e-014
lhumerus -31.6124 12.3898 17.8359
lradius 49.3817
lwrist 52.0985
lhand 10.5863 20.2985
lfingers 7.12502
lthumb 35.6822 46.6925
rfemur -22.0209 -8.0434 22.5391
rtibia 27.9093
rfoot -20.4864 -1.77072
rtoes 34.5781
lfemur -21.7588 -4.12203 -17.5221
ltibia 22.8734
lfoot -13.38 -0.351658
ltoes -29.1379
3691
root 19.4557 17.964 -16.028 192.703 -195.636 -178.702
lowerback 12.9636 -1.31752 4.24225
upperback 7.74477 -1.20812 1.4008
thorax 0.81824 -0.466624 -0.781037
lowerneck -2.54211 4.51601 13.5144
upperneck 32.0851 6.59783 -6.54737
head 11.5552 3.91019 -4.09489
rclavicle 7.55382e-015 -2.3059e-014
rhumerus -24.1725 -32.9739 -16.6551
rradius 53.0336
rwrist -32.5229
rhand 16.4353 15.4493
rfingers 7.12502
rthumb 41.2009 -9.40288
lclavicle 7.55382e-015 -2.3059e-014
lhumerus -31.4859 12.1277 17.9893
lradius 49.6023
lwrist 52.2064
lhand 10.9206 20.6313
lfingers 7.12502
lthumb 35.9989 46.9481
rfemur -21.9223 -7.80603 22.5174
rtibia 27.9327
rfoot -20.5737 -2.0105
rtoes 34.5813
lfemur -21.6546 -3.95798 -17.5318
ltibia 22.8026
lfoot -13.3368 -0.388492
ltoes -30.1711
